<?xml version="1.0" encoding="UTF-8" standalone="no"?>
<svg
   width="16"
   height="16"
   viewBox="0 0 16 16"
   fill="none"
   version="1.1"
   id="svg4"
   sodipodi:docname="tyeNodeReplica.svg"
   inkscape:version="1.1.1 (eb90963e84, 2021-10-02)"
   xmlns:inkscape="http://www.inkscape.org/namespaces/inkscape"
   xmlns:sodipodi="http://sodipodi.sourceforge.net/DTD/sodipodi-0.dtd"
   xmlns="http://www.w3.org/2000/svg"
   xmlns:svg="http://www.w3.org/2000/svg"
   xmlns:rdf="http://www.w3.org/1999/02/22-rdf-syntax-ns#"
   xmlns:cc="http://creativecommons.org/ns#"
   xmlns:dc="http://purl.org/dc/elements/1.1/">
  <metadata
     id="metadata10">
    <rdf:RDF>
      <cc:Work
         rdf:about="">
        <dc:format>image/svg+xml</dc:format>
        <dc:type
           rdf:resource="http://purl.org/dc/dcmitype/StillImage" />
        <dc:title />
      </cc:Work>
    </rdf:RDF>
  </metadata>
  <defs
     id="defs8" />
  <sodipodi:namedview
     pagecolor="#ffffff"
     bordercolor="#666666"
     borderopacity="1"
     objecttolerance="10"
     gridtolerance="10"
     guidetolerance="10"
     inkscape:pageopacity="0"
     inkscape:pageshadow="2"
     inkscape:window-width="1852"
     inkscape:window-height="1016"
     id="namedview6"
     showgrid="true"
     inkscape:zoom="61.307692"
     inkscape:cx="5.0809285"
     inkscape:cy="9.1260979"
     inkscape:window-x="0"
     inkscape:window-y="0"
     inkscape:window-maximized="1"
     inkscape:current-layer="g842"
     inkscape:document-rotation="0"
     inkscape:object-nodes="false"
     inkscape:object-paths="true"
     inkscape:snap-intersection-paths="true"
     inkscape:snap-smooth-nodes="false"
     inkscape:pagecheckerboard="0">
    <inkscape:grid
       type="xygrid"
       id="grid835"
       spacingx="0.5"
       spacingy="0.5" />
  </sodipodi:namedview>
  <g
     id="g840"
     transform="matrix(1.3333333,0,0,1.3749803,-0.66666665,-0.93729323)">
    <g
       id="g841">
      <g
         id="g850">
        <path
           id="path837"
           style="fill:#6e6e6e;fill-opacity:1;stroke-width:0.950319"
           d="M 6.4375612,2.8636312 A 4.1250001,3.6363636 0 0 0 2.3750001,6.4999948 4.1250001,3.6363636 0 0 0 6.5000002,10.136358 4.1250001,3.6363636 0 0 0 10.625,6.4999948 4.1250001,3.6363636 0 0 0 6.5000002,2.8636312 a 4.1250001,3.6363636 0 0 0 -0.062439,0 z m 0.062439,2.0454545 A 1.8046876,1.5909091 0 0 1 8.3046879,6.4999948 1.8046876,1.5909091 0 0 1 6.5000003,8.0909039 1.8046876,1.5909091 0 0 1 4.6953128,6.4999948 1.8046876,1.5909091 0 0 1 6.5000002,4.9090857 Z" />
        <g
           id="g842" />
      </g>
    </g>
  </g>
</svg>
