<?xml version="1.0" encoding="UTF-8" standalone="no"?>
<svg
   xmlns:dc="http://purl.org/dc/elements/1.1/"
   xmlns:cc="http://creativecommons.org/ns#"
   xmlns:rdf="http://www.w3.org/1999/02/22-rdf-syntax-ns#"
   xmlns:svg="http://www.w3.org/2000/svg"
   xmlns="http://www.w3.org/2000/svg"
   xmlns:sodipodi="http://sodipodi.sourceforge.net/DTD/sodipodi-0.dtd"
   xmlns:inkscape="http://www.inkscape.org/namespaces/inkscape"
   width="16"
   height="16"
   viewBox="0 0 16 16"
   fill="none"
   version="1.1"
   id="svg4"
   sodipodi:docname="tyeNodeDotNet_dark.svg"
   inkscape:version="1.0.2 (394de47547, 2021-03-26)">
  <metadata
     id="metadata10">
    <rdf:RDF>
      <cc:Work
         rdf:about="">
        <dc:format>image/svg+xml</dc:format>
        <dc:type
           rdf:resource="http://purl.org/dc/dcmitype/StillImage" />
        <dc:title></dc:title>
      </cc:Work>
    </rdf:RDF>
  </metadata>
  <defs
     id="defs8">
    <clipPath
       clipPathUnits="userSpaceOnUse"
       id="clipPath858">
      <path
         id="path860"
         style="fill:#000000;stroke-width:0.738554"
         d="M 0.5,0.68167757 V 12.318208 H 2.7500001 V 7.2272259 H 12.5 V 0.68167757 Z" />
    </clipPath>
  </defs>
  <sodipodi:namedview
     pagecolor="#ffffff"
     bordercolor="#666666"
     borderopacity="1"
     objecttolerance="10"
     gridtolerance="10"
     guidetolerance="10"
     inkscape:pageopacity="0"
     inkscape:pageshadow="2"
     inkscape:window-width="1848"
     inkscape:window-height="1016"
     id="namedview6"
     showgrid="true"
     inkscape:zoom="61.307692"
     inkscape:cx="4.6953367"
     inkscape:cy="7.0243803"
     inkscape:window-x="0"
     inkscape:window-y="0"
     inkscape:window-maximized="1"
     inkscape:current-layer="g842"
     inkscape:document-rotation="0"
     inkscape:object-nodes="false"
     inkscape:object-paths="true"
     inkscape:snap-intersection-paths="true"
     inkscape:snap-smooth-nodes="false">
    <inkscape:grid
       type="xygrid"
       id="grid835"
       spacingx="0.5"
       spacingy="0.5" />
  </sodipodi:namedview>
  <g
     id="g840"
     transform="matrix(1.3333333,0,0,1.3749803,-0.66666665,-0.93729323)">
    <g
       id="g841">
      <g
         id="g850"
         clip-path="url(#clipPath858)">
        <path
           id="path837"
           style="fill:#afb1b3;fill-opacity:1;stroke-width:0.950319"
           d="M 6.4375612,2.8636312 A 4.1250001,3.6363636 0 0 0 2.3750001,6.4999948 4.1250001,3.6363636 0 0 0 6.5000002,10.136358 4.1250001,3.6363636 0 0 0 10.625,6.4999948 4.1250001,3.6363636 0 0 0 6.5000002,2.8636312 a 4.1250001,3.6363636 0 0 0 -0.062439,0 z m 0.062439,2.0454545 A 1.8046876,1.5909091 0 0 1 8.3046879,6.4999948 1.8046876,1.5909091 0 0 1 6.5000003,8.0909039 1.8046876,1.5909091 0 0 1 4.6953128,6.4999948 1.8046876,1.5909091 0 0 1 6.5000002,4.9090857 Z" />
        <g
           id="g842">
          <rect
             style="fill:#afb1b3;fill-opacity:1;stroke-width:1.13961"
             id="rect836"
             width="3.75"
             height="1.8182079"
             x="8"
             y="3.2271686" />
          <rect
             style="fill:#6e6e6e;fill-opacity:1;stroke-width:1.13963"
             id="rect836-3"
             width="3.75"
             height="1.8182079"
             x="8"
             y="7.9545093" />
          <rect
             style="fill:#afb1b3;fill-opacity:1;stroke-width:1.13962"
             id="rect836-6"
             width="3.75"
             height="1.8182079"
             x="1.25"
             y="7.9545093" />
          <rect
             style="fill:#afb1b3;fill-opacity:1;stroke-width:1.13962"
             id="rect836-7"
             width="3.75"
             height="1.8182079"
             x="1.25"
             y="3.2271686" />
        </g>
      </g>
      <g
         id="dotNetProject"
         fill="none"
         fill-rule="evenodd"
         stroke="none"
         stroke-width="1"
         transform="matrix(0.64375446,0,0,0.62425568,2.8439409,4.8269738)">
        <path
           id="Fill-2"
           fill="#40b6e0"
           d="M 7.9766,10.1763 C 7.7026,9.4853 6.9966,6.9603 6.8396,6.0002853 7.1636,5.9983 7.4586,6.2003 7.6236,6.8113 c 0.199,0.74 0.707,3.429 1.58,4.189 -0.476,0.018 -0.956,-0.141 -1.227,-0.824 z m 6.023,-5.176 c 0,10e-4 -1.4,3.132 -1.636,3.538 -0.101,0.174 -0.327,0.564 -0.51,0.774 0.46,-1.222 1.422,-4.311 1.422,-4.312 h -0.168 c -1.333,0 -1.862,0.992 -2.152,2.419 -0.141,0.692 -0.634,2.551 -0.865,3.074 -0.154,-0.48 -0.532,-3.206 -1.028,-4.293 -0.364,-0.798 -0.861,-1.2 -1.587,-1.2 h -2.345 c -0.452,0 -0.906,0.256 -1.431,0.79 -0.827,0.843 -2.091,3.256 -2.7,6.198 h 1.202 c 0.302,-1.654 0.893,-3.362 1.777,-4.488 -0.509,1.314 -0.996,3.318 -1.156,4.47 0.941,-0.085 1.597,-0.575 1.719,-1.47 0.164,-1.198 0.625,-3.188 1.379,-4.074 0.164,0.583 0.548,2.881 0.806,3.698 0.348,1.096 0.696,1.876 1.518,1.876 h 2.608 c 0.709,0 1.248,-0.871 1.747,-1.712 0.436,-0.734 2.164,-4.367 2.4,-5.288 z" />
      </g>
    </g>
  </g>
</svg>
