<?xml version="1.0" encoding="UTF-8" standalone="no"?>
<svg
   width="16"
   height="16"
   viewBox="0 0 16 16"
   fill="none"
   version="1.1"
   id="svg4"
   sodipodi:docname="tyeNodeDocker.svg"
   inkscape:version="1.1 (ce6663b3b7, 2021-05-25)"
   xmlns:inkscape="http://www.inkscape.org/namespaces/inkscape"
   xmlns:sodipodi="http://sodipodi.sourceforge.net/DTD/sodipodi-0.dtd"
   xmlns="http://www.w3.org/2000/svg"
   xmlns:svg="http://www.w3.org/2000/svg"
   xmlns:rdf="http://www.w3.org/1999/02/22-rdf-syntax-ns#"
   xmlns:cc="http://creativecommons.org/ns#"
   xmlns:dc="http://purl.org/dc/elements/1.1/">
  <metadata
     id="metadata10">
    <rdf:RDF>
      <cc:Work
         rdf:about="">
        <dc:format>image/svg+xml</dc:format>
        <dc:type
           rdf:resource="http://purl.org/dc/dcmitype/StillImage" />
        <dc:title />
      </cc:Work>
    </rdf:RDF>
  </metadata>
  <defs
     id="defs8">
    <clipPath
       clipPathUnits="userSpaceOnUse"
       id="clipPath869">
      <path
         id="path871"
         style="fill:#000000;stroke-width:0.738554"
         d="M 0.5,0.68167757 V 12.318208 H 4.6250001 V 5.7726596 H 12.5 V 0.68167757 Z" />
    </clipPath>
  </defs>
  <sodipodi:namedview
     pagecolor="#ffffff"
     bordercolor="#666666"
     borderopacity="1"
     objecttolerance="10"
     gridtolerance="10"
     guidetolerance="10"
     inkscape:pageopacity="0"
     inkscape:pageshadow="2"
     inkscape:window-width="1848"
     inkscape:window-height="1016"
     id="namedview6"
     showgrid="true"
     inkscape:zoom="43.351085"
     inkscape:cx="11.995086"
     inkscape:cy="8.5003639"
     inkscape:window-x="0"
     inkscape:window-y="0"
     inkscape:window-maximized="1"
     inkscape:current-layer="g8"
     inkscape:document-rotation="0"
     inkscape:object-nodes="false"
     inkscape:object-paths="true"
     inkscape:snap-intersection-paths="true"
     inkscape:snap-smooth-nodes="false"
     inkscape:pagecheckerboard="0">
    <inkscape:grid
       type="xygrid"
       id="grid835"
       spacingx="0.5"
       spacingy="0.5" />
  </sodipodi:namedview>
  <g
     id="g840"
     transform="matrix(1.3333333,0,0,1.3749803,-0.66666665,-0.93729323)">
    <g
       id="g841">
      <g
         id="g850"
         clip-path="url(#clipPath869)">
        <path
           id="path837"
           style="fill:#6e6e6e;fill-opacity:1;stroke-width:0.950319"
           d="M 6.4375612,2.8636312 A 4.1250001,3.6363636 0 0 0 2.3750001,6.4999948 4.1250001,3.6363636 0 0 0 6.5000002,10.136358 4.1250001,3.6363636 0 0 0 10.625,6.4999948 4.1250001,3.6363636 0 0 0 6.5000002,2.8636312 a 4.1250001,3.6363636 0 0 0 -0.062439,0 z m 0.062439,2.0454545 A 1.8046876,1.5909091 0 0 1 8.3046879,6.4999948 1.8046876,1.5909091 0 0 1 6.5000003,8.0909039 1.8046876,1.5909091 0 0 1 4.6953128,6.4999948 1.8046876,1.5909091 0 0 1 6.5000002,4.9090857 Z" />
        <g
           id="g842">
          <rect
             style="fill:#6e6e6e;fill-opacity:1;stroke-width:1.13961"
             id="rect836"
             width="3.75"
             height="1.8182079"
             x="8"
             y="3.2271686" />
          <rect
             style="fill:#6e6e6e;fill-opacity:1;stroke-width:1.13963"
             id="rect836-3"
             width="3.75"
             height="1.8182079"
             x="8"
             y="7.9545093" />
          <rect
             style="fill:#6e6e6e;fill-opacity:1;stroke-width:1.13962"
             id="rect836-6"
             width="3.75"
             height="1.8182079"
             x="1.25"
             y="7.9545093" />
          <rect
             style="fill:#6e6e6e;fill-opacity:1;stroke-width:1.13962"
             id="rect836-7"
             width="3.75"
             height="1.8182079"
             x="1.25"
             y="3.2271686" />
        </g>
      </g>
      <g
         fill="none"
         fill-rule="evenodd"
         id="g12"
         transform="matrix(0.49933547,0,0,0.48421102,4.7334795,5.078913)">
        <g
           transform="translate(0.5,5.6)"
           id="g8">
          <path
             fill="#34a2f2"
             d="M 14.85003,2.4387013 C 14.811309,2.4079521 14.44985,2.135025 13.687572,2.135025 13.486294,2.1359041 13.285435,2.1531668 13.086953,2.1866533 12.939421,1.1754246 12.103377,0.6823976 12.065894,0.66027972 L 11.861199,0.54223776 11.726573,0.7365035 c -0.122136,0.18905168 -0.220384,0.3921232 -0.292725,0.6045655 -0.02751,0.080804 -0.05128,0.162964 -0.07119,0.2462237 -0.136483,0.5772428 -0.05349,1.1194206 0.239741,1.5829371 C 11.248312,3.3675524 10.6803,3.4161239 10.565355,3.4204196 H 0.5 C 0.516624,4.8010252 0.68744667,5.85944 1.012468,6.595664 1.5,7.7 2.042777,8.40941 2.945414,8.83972 3.848051,9.27003 4.4038961,9.415924 5.6979021,9.415924 6.2824775,9.4177622 6.865954,9.3648551 7.4406793,9.257942 8.2396004,9.1112487 9.0083716,8.8320077 9.7151848,8.431728 10.297582,8.0944653 10.821738,7.6654147 11.267393,7.161079 c 0.745055,-0.8434166 1.188911,-2.3827373 1.519001,-3.2175226 0.04425,0 0.08853,0 0.131548,0 0.815744,0 1.317383,-0.3264335 1.594006,-0.59998 0.183836,-0.1744655 0.327353,-0.386993 0.42048,-0.6227173 l 0.0584,-0.1708891 z"
             id="path2"
             style="fill:#389fd6;fill-opacity:1" />
          <circle
             cx="4.75"
             cy="5.6500001"
             r="1.25"
             fill="#ffffff"
             id="circle4" />
          <circle
             cx="4.75"
             cy="5.6500001"
             r="1"
             fill="#34a2f2"
             fill-rule="nonzero"
             id="circle6"
             style="fill:#389fd6;fill-opacity:1" />
        </g>
        <rect
           height="5"
           x="4"
           y="3"
           fill="#34a2f2"
           fill-rule="nonzero"
           id="rect10"
           width="5.0001454"
           style="fill:#389fd6;fill-opacity:1" />
      </g>
    </g>
  </g>
</svg>
