<?xml version="1.0" encoding="UTF-8" standalone="no"?>
<svg
   xmlns:dc="http://purl.org/dc/elements/1.1/"
   xmlns:cc="http://creativecommons.org/ns#"
   xmlns:rdf="http://www.w3.org/1999/02/22-rdf-syntax-ns#"
   xmlns:svg="http://www.w3.org/2000/svg"
   xmlns="http://www.w3.org/2000/svg"
   xmlns:sodipodi="http://sodipodi.sourceforge.net/DTD/sodipodi-0.dtd"
   xmlns:inkscape="http://www.inkscape.org/namespaces/inkscape"
   width="16"
   height="16"
   viewBox="0 0 16 16"
   fill="none"
   version="1.1"
   id="svg4"
   sodipodi:docname="tyeRun_dark.svg"
   inkscape:version="1.0.2 (394de47547, 2021-03-26)">
  <metadata
     id="metadata10">
    <rdf:RDF>
      <cc:Work
         rdf:about="">
        <dc:format>image/svg+xml</dc:format>
        <dc:type
           rdf:resource="http://purl.org/dc/dcmitype/StillImage" />
        <dc:title></dc:title>
      </cc:Work>
    </rdf:RDF>
  </metadata>
  <defs
     id="defs8">
    <inkscape:perspective
       sodipodi:type="inkscape:persp3d"
       inkscape:vp_x="0 : 8 : 1"
       inkscape:vp_y="0 : 1000 : 0"
       inkscape:vp_z="16 : 8 : 1"
       inkscape:persp3d-origin="8 : 5.3333333 : 1"
       id="perspective1045" />
    <clipPath
       clipPathUnits="userSpaceOnUse"
       id="clipPath883">
      <path
         id="path885"
         style="fill:#000000;stroke-width:0.738554"
         d="M 0.5,0.68167757 V 12.318208 H 6.5000002 V 4.3180933 L 12.5,8.3181506 V 0.68167757 Z M 12.5,8.3181506 6.5000002,12.318208 H 12.5 Z" />
    </clipPath>
  </defs>
  <sodipodi:namedview
     pagecolor="#ffffff"
     bordercolor="#666666"
     borderopacity="1"
     objecttolerance="10"
     gridtolerance="10"
     guidetolerance="10"
     inkscape:pageopacity="0"
     inkscape:pageshadow="2"
     inkscape:window-width="1848"
     inkscape:window-height="1016"
     id="namedview6"
     showgrid="true"
     inkscape:zoom="43.351085"
     inkscape:cx="9.664086"
     inkscape:cy="12.091152"
     inkscape:window-x="0"
     inkscape:window-y="0"
     inkscape:window-maximized="1"
     inkscape:current-layer="g841"
     inkscape:document-rotation="0"
     inkscape:object-nodes="false"
     inkscape:object-paths="true"
     inkscape:snap-intersection-paths="true"
     inkscape:snap-smooth-nodes="false">
    <inkscape:grid
       type="xygrid"
       id="grid835"
       spacingx="0.5"
       spacingy="0.5" />
  </sodipodi:namedview>
  <g
     id="g840"
     transform="matrix(1.3333333,0,0,1.3749803,-0.66666665,-0.93729323)">
    <g
       id="g841">
      <g
         id="g1043">
        <g
           id="g850"
           clip-path="url(#clipPath883)">
          <g
             id="g919">
            <path
               id="path837"
               style="fill:#afb1b3;fill-opacity:1;stroke-width:0.950319"
               d="M 6.4375612,2.8636312 A 4.1250001,3.6363636 0 0 0 2.3750001,6.4999948 4.1250001,3.6363636 0 0 0 6.5000002,10.136358 4.1250001,3.6363636 0 0 0 10.625,6.4999948 4.1250001,3.6363636 0 0 0 6.5000002,2.8636312 a 4.1250001,3.6363636 0 0 0 -0.062439,0 z m 0.062439,2.0454545 A 1.8046876,1.5909091 0 0 1 8.3046879,6.4999948 1.8046876,1.5909091 0 0 1 6.5000003,8.0909039 1.8046876,1.5909091 0 0 1 4.6953128,6.4999948 1.8046876,1.5909091 0 0 1 6.5000002,4.9090857 Z" />
            <g
               id="g842">
              <rect
                 style="fill:#afb1b3;fill-opacity:1;stroke-width:1.13961"
                 id="rect836"
                 width="3.75"
                 height="1.8182079"
                 x="8"
                 y="3.2271686" />
              <rect
                 style="fill:#afb1b3;fill-opacity:1;stroke-width:1.13962"
                 id="rect836-6"
                 width="3.75"
                 height="1.8182079"
                 x="1.25"
                 y="7.9545093" />
              <rect
                 style="fill:#afb1b3;fill-opacity:1;stroke-width:1.13962"
                 id="rect836-7"
                 width="3.75"
                 height="1.8182079"
                 x="1.25"
                 y="3.2271686" />
            </g>
          </g>
        </g>
      </g>
      <polygon
         fill="#499c54"
         points="16,11.5 9,16 9,7 "
         id="polygon2"
         transform="matrix(0.75000002,0,0,0.72728315,0.49999999,0.68167755)" />
    </g>
  </g>
</svg>
