<?xml version="1.0" encoding="UTF-8" standalone="no"?>
<svg
   xmlns:dc="http://purl.org/dc/elements/1.1/"
   xmlns:cc="http://creativecommons.org/ns#"
   xmlns:rdf="http://www.w3.org/1999/02/22-rdf-syntax-ns#"
   xmlns:svg="http://www.w3.org/2000/svg"
   xmlns="http://www.w3.org/2000/svg"
   xmlns:sodipodi="http://sodipodi.sourceforge.net/DTD/sodipodi-0.dtd"
   xmlns:inkscape="http://www.inkscape.org/namespaces/inkscape"
   width="13"
   height="13"
   viewBox="0 0 13 13"
   fill="none"
   version="1.1"
   id="svg4"
   sodipodi:docname="new_dark.svg"
   inkscape:version="1.0.2 (394de47547, 2021-03-26)">
  <metadata
     id="metadata10">
    <rdf:RDF>
      <cc:Work
         rdf:about="">
        <dc:format>image/svg+xml</dc:format>
        <dc:type
           rdf:resource="http://purl.org/dc/dcmitype/StillImage" />
        <dc:title></dc:title>
      </cc:Work>
    </rdf:RDF>
  </metadata>
  <defs
     id="defs8" />
  <sodipodi:namedview
     pagecolor="#ffffff"
     bordercolor="#666666"
     borderopacity="1"
     objecttolerance="10"
     gridtolerance="10"
     guidetolerance="10"
     inkscape:pageopacity="0"
     inkscape:pageshadow="2"
     inkscape:window-width="1848"
     inkscape:window-height="1016"
     id="namedview6"
     showgrid="true"
     inkscape:zoom="61.307692"
     inkscape:cx="6.6563855"
     inkscape:cy="5.8522789"
     inkscape:window-x="0"
     inkscape:window-y="0"
     inkscape:window-maximized="1"
     inkscape:current-layer="svg4"
     inkscape:document-rotation="0"
     inkscape:object-nodes="false">
    <inkscape:grid
       type="xygrid"
       id="grid835"
       spacingx="0.5"
       spacingy="0.5" />
  </sodipodi:namedview>
  <g
     id="g840"
     transform="matrix(1.0833333,0,0,1.1249839,-0.54166665,-0.81246197)">
    <path
       id="path837"
       style="fill:#6e6e6e;fill-opacity:1;stroke-width:0.981485"
       d="M 6.4394531,2.5 A 4,4 0 0 0 2.5,6.5 a 4,4 0 0 0 4,4 4,4 0 0 0 4,-4 4,4 0 0 0 -4,-4 4,4 0 0 0 -0.060547,0 z M 6.5,4.75 A 1.75,1.75 0 0 1 8.25,6.5 1.75,1.75 0 0 1 6.5,8.25 1.75,1.75 0 0 1 4.75,6.5 1.75,1.75 0 0 1 6.5,4.75 Z" />
    <rect
       style="fill:#6e6e6e;fill-opacity:1"
       id="rect836"
       width="3.5"
       height="1.5"
       x="9"
       y="3.5" />
    <rect
       style="fill:#6e6e6e;fill-opacity:1"
       id="rect836-3"
       width="3.5"
       height="1.5"
       x="9"
       y="8" />
    <rect
       style="fill:#6e6e6e;fill-opacity:1"
       id="rect836-6"
       width="3.5"
       height="1.5"
       x="0.5"
       y="8" />
    <rect
       style="fill:#6e6e6e;fill-opacity:1"
       id="rect836-7"
       width="3.5"
       height="1.5"
       x="0.5"
       y="3.5" />
  </g>
  <path
     style="fill:#afb1b3;stroke-width:0.0163112;fill-opacity:1"
     d="M 6.1833617,10.980805 C 6.1564483,10.977062 6.064698,10.966067 5.9794721,10.956372 5.192908,10.866892 4.4303572,10.529145 3.7662019,9.9760771 L 3.6326054,9.864826 H 1.8210952 0.00958496 V 9.0329565 8.201087 H 1.2492337 c 0.6818067,0 1.2396487,-0.00397 1.2396487,-0.00883 0,-0.00486 -0.026231,-0.083763 -0.058291,-0.175345 C 2.3465668,7.7768882 2.2672589,7.4566962 2.2251412,7.187439 2.1940613,6.9887455 2.188409,6.8865844 2.18782,6.5128812 2.187373,6.2296296 2.1949085,6.0171861 2.2089364,5.9175236 2.2551148,5.5894452 2.3558012,5.1743555 2.4497427,4.9247757 c 0.021527,-0.057191 0.03914,-0.1067804 0.03914,-0.1101979 0,-0.00342 -0.557842,-0.00621 -1.2396487,-0.00621 H 0.00958496 V 3.9683391 3.128314 H 1.8248972 3.6402093 L 3.7754472,3.0138999 C 4.2592193,2.6046184 4.8609257,2.2924532 5.4562396,2.1419052 6.165698,1.9624913 6.8802002,1.9654955 7.5763378,2.1508191 8.1823735,2.3121561 8.7840409,2.6304305 9.2443951,3.0332004 l 0.1087121,0.095114 h 1.8200838 1.820083 v 0.8400251 0.8400251 h -1.239649 c -0.681807,0 -1.239648,0.00223 -1.239648,0.00495 0,0.00272 0.02606,0.081628 0.05791,0.175345 0.331878,0.976432 0.334655,2.0212086 0.008,2.9984625 -0.03624,0.1084019 -0.06589,0.2008901 -0.06589,0.2055293 0,0.00464 0.557841,0.00844 1.239648,0.00844 h 1.239649 V 9.0329565 9.864826 L 11.178657,9.865299 9.3640393,9.8657721 9.2090832,9.9963165 C 8.6076939,10.502964 7.8728623,10.832679 7.0804759,10.951413 c -0.1543611,0.02313 -0.7919452,0.04402 -0.8971142,0.02939 z M 6.9336754,8.4227703 C 7.2932898,8.3345808 7.5722501,8.1728915 7.8408813,7.8969411 8.6696044,7.0456383 8.5658213,5.620663 7.6230375,4.9058791 7.3836144,4.7243572 7.125066,4.6093306 6.8334251,4.5545856 6.6295971,4.5163244 6.2381781,4.5289272 6.0459078,4.5799418 5.7275158,4.6644201 5.4467016,4.8225732 5.2077205,5.0520046 4.914247,5.3337508 4.7244206,5.6813943 4.6326895,6.105102 c -0.039111,0.1806573 -0.039865,0.584563 -0.00145,0.7792641 0.1653566,0.8381755 0.8093939,1.4619637 1.6289264,1.577711 0.1719915,0.024291 0.4898121,0.00574 0.673514,-0.039307 z"
     id="path836" />
</svg>
