<?xml version="1.0" encoding="UTF-8" standalone="no"?>
<svg
   xmlns:dc="http://purl.org/dc/elements/1.1/"
   xmlns:cc="http://creativecommons.org/ns#"
   xmlns:rdf="http://www.w3.org/1999/02/22-rdf-syntax-ns#"
   xmlns:svg="http://www.w3.org/2000/svg"
   xmlns="http://www.w3.org/2000/svg"
   xmlns:sodipodi="http://sodipodi.sourceforge.net/DTD/sodipodi-0.dtd"
   xmlns:inkscape="http://www.inkscape.org/namespaces/inkscape"
   width="13"
   height="13"
   viewBox="0 0 13 13"
   fill="none"
   version="1.1"
   id="svg4"
   sodipodi:docname="new.svg"
   inkscape:version="1.0.2 (394de47547, 2021-03-26)">
  <metadata
     id="metadata10">
    <rdf:RDF>
      <cc:Work
         rdf:about="">
        <dc:format>image/svg+xml</dc:format>
        <dc:type
           rdf:resource="http://purl.org/dc/dcmitype/StillImage" />
        <dc:title />
      </cc:Work>
    </rdf:RDF>
  </metadata>
  <defs
     id="defs8" />
  <sodipodi:namedview
     pagecolor="#ffffff"
     bordercolor="#666666"
     borderopacity="1"
     objecttolerance="10"
     gridtolerance="10"
     guidetolerance="10"
     inkscape:pageopacity="0"
     inkscape:pageshadow="2"
     inkscape:window-width="1848"
     inkscape:window-height="1016"
     id="namedview6"
     showgrid="true"
     inkscape:zoom="86.702169"
     inkscape:cx="7.5680712"
     inkscape:cy="6.2009057"
     inkscape:window-x="0"
     inkscape:window-y="0"
     inkscape:window-maximized="1"
     inkscape:current-layer="svg4"
     inkscape:document-rotation="0"
     inkscape:object-nodes="false">
    <inkscape:grid
       type="xygrid"
       id="grid835"
       spacingx="0.5"
       spacingy="0.5" />
  </sodipodi:namedview>
  <g
     id="g840"
     transform="matrix(1.0833333,0,0,1.1249839,-0.54166665,-0.81246197)">
    <path
       id="path837"
       style="fill:#6e6e6e;fill-opacity:1;stroke-width:0.981485"
       d="M 6.4394531,2.5 A 4,4 0 0 0 2.5,6.5 a 4,4 0 0 0 4,4 4,4 0 0 0 4,-4 4,4 0 0 0 -4,-4 4,4 0 0 0 -0.060547,0 z M 6.5,4.75 A 1.75,1.75 0 0 1 8.25,6.5 1.75,1.75 0 0 1 6.5,8.25 1.75,1.75 0 0 1 4.75,6.5 1.75,1.75 0 0 1 6.5,4.75 Z" />
    <rect
       style="fill:#6e6e6e;fill-opacity:1"
       id="rect836"
       width="3.5"
       height="1.5"
       x="9"
       y="3.5" />
    <rect
       style="fill:#6e6e6e;fill-opacity:1"
       id="rect836-3"
       width="3.5"
       height="1.5"
       x="9"
       y="8" />
    <rect
       style="fill:#6e6e6e;fill-opacity:1"
       id="rect836-6"
       width="3.5"
       height="1.5"
       x="0.5"
       y="8" />
    <rect
       style="fill:#6e6e6e;fill-opacity:1"
       id="rect836-7"
       width="3.5"
       height="1.5"
       x="0.5"
       y="3.5" />
  </g>
</svg>
